# xmcd CD database file
#
# Track frame offsets:
#	150
#	12249
#	23425
#	36416
#	49458
#	62577
#	74046
#	93254
#	105774
#	125327
#	137036
#	150927
#	165455
#	179883
#	193191
#	207240
#	221633
#	232744
#	246959
#	261580
#
# Disc length: 3671 seconds
#
# Revision: 0
# Processed by: cddbd v1.5.2PL0 Copyright (c) Steve Scherf et al.
# Submitted via: CDex 1.70beta2
#
DISCID=1c0e5514
DTITLE=Louis Armstrong - Jeepers Creepers
DYEAR=1938
DGENRE=Jazz
TTITLE0=When the Saints go marchin´in
TTITLE1=Love walked in
TTITLE2=I´ve got a pocketful of dreams
TTITLE3=I can´t give you anything but love
TTITLE4=Ain´t misbehaving
TTITLE5=Schadrack
TTITLE6=Elder Eatmore´s Sermon on throwing Stones
TTITLE7=Jonah and the Whale
TTITLE8=Elder Eatmore´s Sermon on Generosity
TTITLE9=Jeeper´s Creepers
TTITLE10=What is the thing called swing
TTITLE11=Rockin´chair
TTITLE12=Lazybones
TTITLE13=Save it, pretty man
TTITLE14=West end Blues
TTITLE15=Savoy Blues
TTITLE16=Our monday date
TTITLE17=Confessin
TTITLE18=Baby, won´t you please come home
TTITLE19=Hear me talkin´ to ya
EXTD=YEAR: 1938
EXTT0=
EXTT1=
EXTT2=
EXTT3=
EXTT4=
EXTT5=
EXTT6=
EXTT7=
EXTT8=
EXTT9=
EXTT10=
EXTT11=
EXTT12=
EXTT13=
EXTT14=
EXTT15=
EXTT16=
EXTT17=
EXTT18=
EXTT19=
PLAYORDER=
